<?xml version="1.0" encoding="UTF-8"?>
<svg xmlns="http://www.w3.org/2000/svg" xmlns:xlink="http://www.w3.org/1999/xlink" width="90px" height="88px" viewBox="0 0 90 88" version="1.1">
<g id="surface1">
<path style=" stroke:none;fill-rule:nonzero;fill:rgb(0%,0%,0%);fill-opacity:1;" d="M 60.5 67.757812 C 56.652344 67.542969 53.234375 68.570312 50.167969 70.785156 C 49.496094 71.273438 48.875 71.84375 48.082031 72.140625 C 46.074219 72.894531 44.238281 72.574219 42.566406 71.253906 C 40.488281 69.609375 38.164062 68.5 35.5625 67.984375 C 34.636719 67.800781 33.703125 67.75 32.765625 67.75 C 27.558594 67.75 22.351562 67.746094 17.144531 67.746094 C 16.375 67.742188 16.210938 67.59375 16.210938 66.84375 C 16.207031 54.824219 16.207031 42.804688 16.210938 30.785156 C 16.210938 30.007812 16.375 29.855469 17.183594 29.851562 C 17.890625 29.847656 18.597656 29.839844 19.308594 29.855469 C 19.707031 29.863281 19.871094 29.707031 19.863281 29.304688 C 19.847656 28.53125 19.875 27.761719 19.855469 26.992188 C 19.839844 26.402344 20.132812 26.148438 20.683594 26.136719 C 21.289062 26.125 21.890625 26.125 22.496094 26.125 C 25.871094 26.121094 29.246094 26.097656 32.617188 26.132812 C 37.363281 26.179688 41.730469 27.472656 45.625 30.234375 C 45.925781 30.449219 46.148438 30.46875 46.453125 30.246094 C 49.632812 27.949219 53.21875 26.699219 57.085938 26.253906 C 57.996094 26.148438 58.929688 26.007812 60.070312 26.1875 C 59.328125 26.722656 58.878906 27.355469 58.03125 27.398438 C 54.125 27.597656 50.59375 28.886719 47.367188 31.066406 C 46.863281 31.40625 46.652344 31.800781 46.65625 32.410156 C 46.667969 43.742188 46.664062 55.074219 46.664062 66.40625 C 46.664062 66.628906 46.617188 66.859375 46.757812 67.144531 C 47.125 66.90625 47.484375 66.679688 47.832031 66.4375 C 50.511719 64.5625 53.496094 63.464844 56.714844 63 C 57.511719 62.882812 58.324219 62.832031 59.140625 62.832031 C 62.828125 62.847656 66.515625 62.839844 70.203125 62.839844 C 71.023438 62.839844 71.066406 62.742188 71.054688 61.941406 C 71.019531 59.984375 71.019531 58.027344 71.015625 56.066406 C 71.011719 51.839844 71.011719 47.609375 71.015625 43.382812 C 71.019531 39.5 71.011719 39.496094 72.699219 35.988281 C 73.035156 35.285156 73.222656 34.585938 73.03125 33.820312 C 72.988281 33.640625 73.011719 33.496094 73.140625 33.363281 C 74.039062 32.425781 74.757812 31.359375 75.410156 30.238281 C 75.460938 30.152344 75.507812 30.050781 75.664062 30.042969 C 76.023438 30.199219 75.914062 30.546875 75.914062 30.839844 C 75.921875 34.652344 75.917969 38.464844 75.917969 42.273438 C 75.917969 50.398438 75.917969 58.523438 75.917969 66.648438 C 75.917969 67.648438 75.8125 67.753906 74.808594 67.753906 C 70.0625 67.757812 65.3125 67.757812 60.5 67.757812 M 33.5 27.328125 C 33.273438 27.316406 33.042969 27.296875 32.816406 27.296875 C 29.167969 27.296875 25.523438 27.296875 21.878906 27.296875 C 21.042969 27.296875 21.042969 27.300781 21.042969 28.125 C 21.039062 39.4375 21.046875 50.75 21.027344 62.0625 C 21.027344 62.722656 21.242188 62.859375 21.851562 62.851562 C 25.414062 62.828125 28.976562 62.851562 32.539062 62.835938 C 37.015625 62.820312 41.058594 64.148438 44.703125 66.730469 C 44.898438 66.871094 45.082031 67.058594 45.367188 67 C 45.523438 66.742188 45.453125 66.464844 45.453125 66.203125 C 45.460938 60.640625 45.457031 55.078125 45.457031 49.515625 C 45.457031 43.847656 45.453125 38.179688 45.46875 32.515625 C 45.46875 31.871094 45.296875 31.386719 44.71875 31.058594 C 44.179688 30.746094 43.671875 30.371094 43.128906 30.070312 C 40.167969 28.425781 37.007812 27.484375 33.5 27.328125 Z M 33.5 27.328125 "/>
<path style=" stroke:none;fill-rule:nonzero;fill:rgb(0%,0%,0%);fill-opacity:1;" d="M 70.921875 35.40625 C 70.414062 36.507812 69.945312 37.578125 69.425781 38.621094 C 68.226562 41.035156 67.316406 42.054688 64.738281 43.976562 C 65.050781 44.109375 65.351562 44.0625 65.652344 44.015625 C 65.988281 43.960938 66.332031 43.914062 66.558594 44.253906 C 66.761719 44.558594 66.617188 44.847656 66.492188 45.140625 C 64.9375 48.851562 62.230469 51.488281 58.777344 53.445312 C 57.273438 54.296875 55.765625 55.136719 54.167969 55.808594 C 53.824219 55.953125 53.648438 56.167969 53.558594 56.519531 C 53.167969 58.027344 52.808594 59.546875 52.566406 61.085938 C 52.476562 61.625 52.199219 61.582031 51.824219 61.539062 C 51.40625 61.492188 51.328125 61.300781 51.398438 60.902344 C 51.671875 59.34375 51.976562 57.796875 52.402344 56.273438 C 52.539062 55.78125 52.484375 55.378906 52.210938 54.921875 C 50.65625 52.335938 49.457031 49.601562 49.042969 46.578125 C 48.574219 43.183594 49.242188 40.082031 51.425781 37.371094 C 51.617188 37.136719 51.804688 36.90625 52.148438 37.003906 C 52.507812 37.105469 52.617188 37.394531 52.648438 37.722656 C 52.699219 38.285156 52.820312 38.828125 53.042969 39.480469 C 53.191406 38.667969 53.296875 37.96875 53.449219 37.28125 C 54.058594 34.488281 55.546875 32.25 57.707031 30.40625 C 63.398438 25.546875 69.976562 22.382812 77.078125 20.210938 C 77.636719 20.039062 78.191406 19.867188 78.746094 19.683594 C 79.050781 19.582031 79.324219 19.574219 79.535156 19.847656 C 79.746094 20.121094 79.679688 20.40625 79.511719 20.664062 C 78.757812 21.8125 78.011719 22.964844 77.230469 24.097656 C 75.945312 25.964844 74.636719 27.824219 73.507812 29.796875 C 72.589844 31.390625 71.371094 32.710938 69.785156 33.671875 C 69.699219 33.722656 69.625 33.789062 69.402344 33.957031 C 69.820312 33.957031 70.078125 33.957031 70.335938 33.957031 C 71.222656 33.953125 71.410156 34.246094 71.0625 35.074219 C 71.023438 35.171875 70.980469 35.265625 70.921875 35.40625 M 55.101562 50.929688 C 56.117188 48.125 57.320312 45.40625 58.710938 42.769531 C 61.316406 37.84375 64.496094 33.328125 68.351562 29.300781 C 69.316406 28.292969 70.320312 27.324219 71.382812 26.414062 C 71.59375 26.234375 71.796875 26.058594 71.511719 25.75 C 71.238281 25.457031 71.039062 25.609375 70.816406 25.789062 C 70.738281 25.855469 70.664062 25.929688 70.585938 25.996094 C 66.515625 29.601562 63.121094 33.765625 60.246094 38.367188 C 56.996094 43.574219 54.554688 49.140625 52.890625 55.050781 C 52.785156 55.429688 52.808594 55.769531 53.183594 55.871094 C 53.585938 55.980469 53.605469 55.550781 53.683594 55.296875 C 54.125 53.863281 54.542969 52.425781 55.101562 50.929688 Z M 55.101562 50.929688 "/>
</g>
</svg>
